<svg xmlns="http://www.w3.org/2000/svg" viewBox="0 0 40 40">
  <defs>
    <linearGradient id="f" x1="0" y1="0" x2="1" y2="1">
      <stop offset="0%" stop-color="#8b95ff"/>
      <stop offset="100%" stop-color="#4f46e5"/>
    </linearGradient>
  </defs>
  <g transform="translate(2 2)">
    <path d="M6 0 H26 L36 10 V30 a6 6 0 0 1 -6 6 H6 a6 6 0 0 1 -6 -6 V6 a6 6 0 0 1 6 -6 Z" fill="url(#f)"/>
    <path d="M26 0 V8 a2 2 0 0 0 2 2 H36 Z" fill="#ffffff" fill-opacity="0.25"/>
    <rect x="8" y="16" width="14" height="3" rx="1.5" fill="#ffffff"/>
    <rect x="8" y="22" width="22" height="2" rx="1" fill="#ffffff" fill-opacity="0.8"/>
    <rect x="8" y="27" width="16" height="2" rx="1" fill="#ffffff" fill-opacity="0.65"/>
  </g>
</svg>
